<svg width="16" height="16" viewBox="0 0 16 16" fill="none" xmlns="http://www.w3.org/2000/svg">
<path d="M13.2826 6.28318L8.28255 11.2832C8.21287 11.3531 8.13008 11.4086 8.03892 11.4464C7.94775 11.4843 7.85001 11.5038 7.7513 11.5038C7.65259 11.5038 7.55485 11.4843 7.46369 11.4464C7.37252 11.4086 7.28973 11.3531 7.22005 11.2832L2.22005 6.28318C2.07915 6.14228 2 5.95118 2 5.75193C2 5.55267 2.07915 5.36157 2.22005 5.22068C2.36095 5.07978 2.55204 5.00063 2.7513 5.00063C2.95056 5.00063 3.14165 5.07978 3.28255 5.22068L7.75193 9.69005L12.2213 5.22005C12.3622 5.07916 12.5533 5 12.7526 5C12.9518 5 13.1429 5.07916 13.2838 5.22005C13.4247 5.36095 13.5039 5.55204 13.5039 5.7513C13.5039 5.95056 13.4247 6.14165 13.2838 6.28255L13.2826 6.28318Z" fill="black"/>
</svg>
